<?xml version="1.0" encoding="UTF-8"?>
<svg width="132px" height="22px" viewBox="0 0 132 22" version="1.1" xmlns="http://www.w3.org/2000/svg" xmlns:xlink="http://www.w3.org/1999/xlink">
    <!-- Generator: Sketch 43.2 (39069) - http://www.bohemiancoding.com/sketch -->
    <title>logo-Falcon</title>
    <desc>Created with Sketch.</desc>
    <defs></defs>
    <g id="Page-1" stroke="none" stroke-width="1" fill="none" fill-rule="evenodd">
        <g id="logo-Falcon">
            <path d="M52.1926289,17 L59.1780689,0.942559953 L61.6501889,0.942559953 L68.5675889,17 L65.3016689,17 L63.8047889,13.32584 L56.8420289,13.32584 L55.3905089,17 L52.1926289,17 Z M57.8172689,10.8764 L62.8068689,10.8764 L60.3347489,4.34455996 L57.8172689,10.8764 Z M70.3593089,17 L80.043669,17 L80.043669,14.41448 L73.2169889,14.41448 L73.2169889,0.942559953 L70.3593089,0.942559953 L70.3593089,17 Z M95.375349,3.07447996 C93.787749,1.23739995 91.927989,0.534319952 89.750709,0.534319952 C84.806469,0.534319952 81.268389,3.89095996 81.268389,9.03931998 C81.268389,14.0516 84.806469,17.40824 89.750709,17.40824 C92.109429,17.40824 94.286709,16.5464 95.738229,14.55056 L93.379509,12.87224 C92.313549,14.23304 91.066149,14.82272 89.773389,14.82272 C86.462109,14.82272 84.262149,12.28256 84.262149,8.85787998 C84.262149,5.65999997 86.462109,3.11983996 89.773389,3.11983996 C90.884709,3.11983996 91.973349,3.46003996 93.152709,4.70743996 L95.375349,3.07447996 Z M96.804189,9.03931998 C96.804189,3.89095996 100.342269,0.534319952 105.286509,0.534319952 C110.298789,0.443599951 113.836869,3.80023996 113.836869,8.94859998 C113.836869,13.96088 110.298789,17.31752 105.286509,17.40824 C100.342269,17.40824 96.804189,14.0516 96.804189,9.03931998 Z M99.797949,8.85787998 C99.797949,12.28256 101.997909,14.82272 105.309189,14.82272 C108.643149,14.82272 110.843109,12.28256 110.843109,8.85787998 C110.843109,5.65999997 108.643149,3.11983996 105.309189,3.11983996 C101.997909,3.11983996 99.797949,5.65999997 99.797949,8.85787998 Z M128.147949,12.89492 L128.170629,12.9176 L128.125269,12.9176 L128.147949,12.89492 L128.147949,12.89492 Z M128.147949,12.89492 L128.170629,12.87224 L128.170629,0.942559953 L131.028309,0.942559953 L131.028309,17 L127.399509,17 L119.461509,4.68475996 L119.416149,4.68475996 L119.416149,17 L116.558469,17 L116.558469,0.942559953 L120.346029,0.942559953 L128.125269,12.87224 L128.147949,12.89492 L128.147949,12.89492 Z" id="ALCON-Copy" fill="#A12736"></path>
            <path d="M34.2692208,11 L32.9666537,8 L13.8089377,8 C13.8629277,8.06292942 13.9080749,8.11477815 13.9452439,8.1505059 C14.2183085,8.4129826 14.2754782,9.89348972 16.4572986,10.5358199 C19.0811873,10.5717035 17.1948505,10.5421409 19.1002533,10.617203 C19.6295871,10.6376778 20.0484533,10.7792533 20.3946269,11 L34.2692208,11 Z M34.7034098,12 L36,14.9862342 C36,14.9862342 25.2412049,15.0172072 24.2004378,14.9862342 C22.5779928,14.7550098 22.1394439,13.1917728 21.3500958,12 L34.7034098,12 Z M32.5324647,7 L31.2298975,4 L7.73864842,4 C8.47320062,5.13714524 8.55726752,6.76078395 11.4914203,6.75134924 C11.9288521,6.75256902 12.2984536,6.85275467 12.6091287,7 L32.5324647,7 Z M30.7957085,3 L29.5039781,0.0249585732 L0.0665707927,0 C0.0665707927,0 -0.414462122,1.26307472 1.20960187,2.02562718 C2.71356865,2.73178996 4.64405611,2.37716917 6.39895924,3 L30.7957085,3 Z" id="Combined-Shape-Copy" fill="#A12836"></path>
            <path d="M44.9389637,21.5031728 L45.6593168,19.8070897 C45.748631,19.5968498 45.7448523,19.359306 45.6491831,19.1519672 L42.3797692,12.0741182 C42.1308918,11.5355491 42.5269658,10.9222357 43.1233096,10.9222357 L49.0585799,10.9222357 C49.383546,10.9222357 49.6777675,10.7309378 49.8081319,10.4352026 L50.4171858,9.05243164 C50.6536966,8.51522775 50.2576226,7.91351844 49.6676338,7.91351844 L41.0895229,7.91351844 C40.7702247,7.91351844 40.4801254,7.72904658 40.3464977,7.44081997 L38.8240346,4.15786938 C38.5742984,3.61930029 38.9703724,3.00479228 39.5672316,3.00479228 L52.5700009,3.00479228 C52.89428,3.00479228 53.1879862,2.8143477 53.3188658,2.51946577 L53.9298091,1.14044905 C54.167694,0.603074508 53.7717917,0 53.1807724,0 L34.8191528,0 C34.2233242,0 33.827422,0.612289568 34.0749253,1.150688 L43.4408902,21.5248452 C43.7368293,22.1685343 44.6620898,22.1552236 44.9389637,21.5031728" id="Fill-1" fill="#ED2224"></path>
        </g>
    </g>
</svg>